<?xml version="1.0" standalone="no"?>
<!DOCTYPE svg PUBLIC "-//W3C//DTD SVG 20010904//EN"
 "http://www.w3.org/TR/2001/REC-SVG-20010904/DTD/svg10.dtd">
<svg version="1.0" xmlns="http://www.w3.org/2000/svg"
 width="1024.000000pt" height="1024.000000pt" viewBox="0 0 1024.000000 1024.000000"
 preserveAspectRatio="xMidYMid meet">

<g transform="translate(0.000000,1024.000000) scale(0.100000,-0.100000)"
fill="#000000" stroke="none">
<path d="M4885 9725 c-623 -115 -1095 -617 -1170 -1245 l-7 -55 -676 0 -677 0
-60 -28 c-96 -45 -169 -127 -197 -222 -5 -16 -33 -329 -63 -695 -31 -366 -80
-962 -110 -1325 -61 -732 -132 -1609 -140 -1725 -3 -41 -8 -101 -11 -133 l-6
-59 48 35 c60 41 116 64 183 73 35 4 51 11 51 21 0 19 95 1181 160 1968 11
132 38 465 60 740 71 892 82 1010 93 1035 24 49 30 50 502 48 242 -2 529 -4
638 -6 l197 -3 0 -161 0 -160 -50 -55 c-95 -103 -105 -229 -28 -340 36 -54
115 -100 184 -109 157 -19 296 106 295 267 0 76 -27 136 -85 193 l-46 44 0
161 0 160 168 3 c312 7 1816 6 1972 -1 l155 -6 3 -157 2 -156 -54 -55 c-75
-75 -102 -165 -76 -257 53 -190 285 -260 432 -130 120 105 123 269 9 393 l-41
44 0 160 0 160 197 6 c304 11 1068 8 1097 -3 47 -17 54 -54 84 -420 l28 -345
39 -3 c22 -1 80 -9 129 -18 49 -8 91 -12 94 -9 11 11 -57 800 -73 845 -32 93
-111 172 -207 208 -38 15 -119 17 -723 20 l-680 2 -12 87 c-68 467 -376 890
-794 1087 -108 51 -212 87 -319 111 -106 24 -408 29 -515 10z m493 -285 c213
-55 389 -157 538 -312 127 -131 214 -273 273 -440 23 -67 61 -224 61 -254 0
-2 -508 -4 -1130 -4 l-1130 0 0 25 c0 54 33 184 70 278 161 403 496 668 925
731 77 11 312 -3 393 -24z"/>
<path d="M7734 7205 c-157 -24 -310 -85 -449 -178 -81 -54 -210 -186 -268
-274 l-48 -72 12 -86 c13 -99 7 -142 -28 -206 l-24 -46 31 -59 c42 -81 60
-154 60 -250 0 -89 -26 -207 -60 -274 l-21 -42 39 -66 c146 -245 387 -427 660
-499 120 -31 345 -43 456 -23 501 89 848 517 849 1045 0 271 -86 505 -259 702
-219 249 -604 382 -950 328z m689 -277 c68 -47 140 -114 187 -174 46 -57 147
-231 139 -238 -10 -9 -122 -62 -246 -117 -76 -33 -151 -67 -167 -75 -16 -8
-30 -13 -30 -12 -18 52 -74 132 -124 178 l-63 58 133 201 c73 111 134 201 136
201 2 0 18 -10 35 -22z m-423 -464 c72 -21 169 -116 193 -188 72 -211 -76
-426 -293 -426 -158 0 -283 111 -310 275 -38 231 176 408 410 339z m-496 -507
c20 -42 110 -140 154 -168 l23 -14 -115 -194 c-63 -106 -117 -195 -120 -198
-11 -12 -104 54 -184 131 -78 74 -203 242 -201 269 0 9 399 215 419 216 3 0
14 -18 24 -42z"/>
<path d="M7818 6310 c-103 -56 -107 -208 -7 -283 70 -52 185 -20 227 63 27 54
28 92 3 146 -38 83 -143 118 -223 74z"/>
<path d="M3350 6819 c-182 -20 -325 -119 -405 -283 -45 -90 -65 -185 -65 -306
0 -190 54 -336 164 -446 106 -106 233 -154 404 -154 198 0 359 78 439 211 48
81 63 153 63 306 l0 133 -255 0 -255 0 0 -105 0 -105 121 0 122 0 -6 -37 c-12
-72 -72 -124 -165 -144 -156 -32 -286 42 -328 188 -18 63 -15 260 5 325 17 54
70 119 120 147 51 28 147 38 209 22 53 -15 107 -62 124 -107 l12 -34 153 0
c84 0 153 2 153 3 0 2 -9 30 -20 62 -79 229 -308 355 -590 324z"/>
<path d="M6387 6819 c-184 -27 -313 -165 -358 -384 -24 -116 -26 -334 -3 -442
33 -163 105 -268 223 -326 63 -31 70 -32 186 -32 109 0 125 2 178 27 80 38
161 117 200 197 29 61 32 73 32 171 0 93 -3 111 -27 162 -38 81 -105 149 -181
184 -52 24 -75 28 -147 29 -90 0 -143 -18 -199 -69 l-23 -21 7 55 c10 81 32
153 57 185 64 81 207 70 239 -19 l13 -36 118 0 118 0 0 34 c0 76 -57 179 -125
226 -76 53 -195 75 -308 59z m140 -649 c99 -60 94 -249 -7 -302 -50 -26 -128
-24 -171 5 -41 27 -79 98 -79 147 0 49 38 120 79 147 45 30 132 32 178 3z"/>
<path d="M4027 6813 c-4 -3 -7 -60 -7 -125 l0 -118 173 0 172 0 -3 -465 -2
-465 145 0 145 0 0 465 0 465 170 0 170 0 0 125 0 125 -478 0 c-263 0 -482 -3
-485 -7z"/>
<path d="M5269 6793 c-28 -75 -379 -1129 -379 -1140 0 -10 33 -13 143 -13
l143 0 35 113 34 112 186 3 185 2 35 -112 34 -113 148 -3 c81 -1 147 -1 147 0
0 2 -87 266 -193 588 l-193 585 -157 3 -157 3 -11 -28z m221 -485 c30 -99 56
-187 58 -195 3 -10 -22 -13 -118 -13 -112 0 -122 2 -118 18 23 82 114 372 118
372 3 0 30 -82 60 -182z"/>
<path d="M3470 5314 c-140 -38 -210 -120 -210 -248 0 -150 73 -226 261 -272
173 -41 207 -53 229 -81 58 -74 -3 -143 -127 -143 -78 0 -122 23 -148 77 l-20
42 -107 1 c-60 0 -108 -3 -108 -7 0 -31 38 -127 65 -165 115 -157 488 -164
615 -10 62 75 76 202 32 288 -44 86 -111 124 -295 165 -144 33 -173 46 -183
86 -17 65 39 113 131 113 67 0 115 -26 138 -72 l19 -38 104 0 104 0 0 28 c0
63 -63 158 -135 202 -77 48 -252 64 -365 34z"/>
<path d="M5373 5315 c-202 -55 -313 -212 -313 -444 0 -188 59 -315 184 -400
132 -89 323 -101 478 -29 173 79 267 275 239 499 -25 192 -139 328 -316 374
-73 19 -202 18 -272 0z m222 -186 c54 -15 118 -82 134 -142 20 -71 11 -231
-17 -284 -56 -107 -208 -145 -324 -81 -82 45 -112 121 -106 268 5 102 23 153
71 198 51 47 155 65 242 41z"/>
<path d="M4120 4865 l0 -455 105 0 105 0 0 180 0 180 190 0 190 0 0 -180 0
-180 105 0 105 0 0 455 0 455 -105 0 -105 0 0 -180 0 -180 -190 0 -190 0 0
180 0 180 -105 0 -105 0 0 -455z"/>
<path d="M6110 4866 l0 -456 105 0 105 0 0 145 0 145 118 0 c193 0 276 39 334
157 29 59 32 75 32 152 -1 108 -27 174 -91 231 -75 66 -107 73 -370 78 l-233
4 0 -456z m399 261 c89 -31 109 -168 33 -227 -21 -17 -40 -20 -123 -20 l-99 0
0 130 0 130 78 -1 c42 0 92 -5 111 -12z"/>
<path d="M8335 5015 c-28 -12 -77 -28 -110 -35 -33 -7 -64 -16 -68 -21 -5 -4
-6 -62 -2 -129 7 -111 10 -122 29 -130 11 -5 68 -29 126 -55 58 -25 110 -48
115 -51 7 -3 4 70 -7 203 -9 115 -17 216 -17 226 -1 21 -4 21 -66 -8z"/>
<path d="M7385 4615 c-498 -92 -870 -419 -1034 -910 -41 -124 -72 -282 -74
-384 -2 -82 -1 -86 21 -89 24 -4 27 -18 16 -84 -6 -33 -11 -38 -64 -57 -111
-41 -183 -116 -215 -225 -31 -102 -13 -516 25 -620 27 -72 85 -135 162 -177
60 -32 69 -34 181 -37 l117 -4 0 78 c0 44 -4 185 -10 314 -28 709 -33 919 -21
934 7 8 34 22 61 31 l48 16 17 77 c50 223 141 392 295 542 99 98 208 167 340
216 145 55 217 68 385 67 129 0 164 -4 247 -26 192 -51 340 -132 477 -262 100
-95 163 -181 221 -300 69 -141 91 -232 97 -392 l5 -132 33 -26 c19 -14 36 -33
39 -43 3 -10 -73 -333 -169 -717 -194 -776 -186 -753 -284 -812 -77 -46 -136
-56 -256 -43 -145 15 -152 18 -174 54 -11 18 -32 38 -46 44 -13 6 -110 21
-215 34 l-191 22 -43 -22 c-27 -15 -51 -38 -66 -63 -47 -84 -8 -212 72 -238
41 -12 292 -41 362 -41 50 0 87 15 113 47 9 12 32 12 150 2 110 -10 153 -10
211 0 194 34 332 166 387 372 l17 67 73 4 c125 8 215 69 274 185 30 61 107
385 118 499 10 110 -33 214 -124 293 -60 54 -65 63 -57 105 5 28 11 35 33 38
24 3 27 8 38 78 7 41 13 149 14 240 1 133 -3 185 -20 267 -58 277 -176 499
-371 693 -198 198 -405 311 -690 375 -106 24 -417 29 -525 10z"/>
<path d="M2098 4190 c-105 -8 -196 -48 -251 -109 -19 -22 -44 -42 -56 -46 -40
-12 -168 -103 -220 -156 -108 -109 -157 -200 -312 -579 -324 -795 -417 -1220
-324 -1495 34 -102 66 -155 142 -236 107 -113 244 -168 389 -156 l65 5 -8 -87
c-15 -163 -9 -290 16 -353 26 -67 102 -155 164 -191 105 -62 -175 -57 3507
-55 l3355 3 67 32 c90 42 160 110 200 191 28 57 33 77 36 161 3 90 -29 546
-39 556 -3 2 -21 2 -41 -1 -33 -6 -38 -11 -68 -80 -18 -41 -54 -103 -81 -138
l-48 -64 11 -141 c13 -162 5 -195 -54 -231 -33 -20 -57 -20 -3365 -20 l-3332
0 -35 30 c-19 17 -38 44 -41 61 -4 16 1 123 11 237 16 203 17 207 43 227 69
51 193 183 289 305 124 159 200 240 262 280 l46 29 43 -21 c54 -26 169 -35
240 -18 27 6 76 27 107 46 l56 34 82 -14 c44 -8 167 -24 271 -37 l190 -22 48
-43 c27 -24 74 -56 105 -71 51 -25 67 -28 162 -28 99 0 107 -2 141 -28 57 -43
116 -136 180 -284 73 -170 127 -269 191 -356 191 -257 475 -343 728 -220 76
38 187 151 227 233 69 141 93 290 93 575 0 273 -27 538 -101 980 -87 521 -113
588 -303 782 -56 57 -119 123 -140 148 -25 30 -64 58 -110 80 -63 31 -90 37
-244 56 -143 18 -180 20 -213 10 -43 -13 -114 -71 -124 -101 -3 -10 -12 -21
-20 -24 -8 -3 -119 6 -247 20 -293 31 -1189 143 -1200 150 -5 3 -14 20 -22 37
-19 46 -63 95 -105 116 -43 22 -227 33 -363 21z m222 -295 c30 -8 87 -31 125
-51 l70 -36 535 -68 c294 -37 638 -78 763 -91 l228 -23 82 28 c231 78 467 25
638 -144 85 -83 133 -171 163 -291 22 -93 90 -507 120 -729 78 -585 58 -947
-62 -1105 -169 -223 -449 -151 -636 165 -27 45 -78 148 -114 229 -75 167 -114
233 -182 305 l-49 52 31 49 c51 82 71 150 71 243 0 75 -3 89 -37 156 -113 229
-404 285 -590 115 -85 -78 -136 -185 -136 -287 l0 -45 -82 7 c-76 6 -259 34
-265 40 -2 1 2 28 7 59 30 159 -65 340 -217 413 -52 25 -69 28 -158 29 -93 0
-105 -2 -166 -32 -130 -64 -210 -190 -217 -343 -3 -68 0 -98 18 -150 21 -62
21 -65 3 -77 -106 -75 -148 -120 -309 -328 -135 -176 -271 -293 -399 -341 -73
-28 -186 -26 -243 4 -217 115 -258 381 -126 833 58 200 276 777 397 1051 37
82 99 169 159 222 60 53 186 119 268 140 72 19 240 20 310 1z m380 -1201 c88
-44 123 -147 81 -240 -22 -48 -63 -80 -117 -92 -142 -30 -260 100 -210 233 19
50 73 102 114 111 15 3 32 7 37 9 16 4 68 -7 95 -21z m1100 -119 c133 -68 131
-251 -2 -321 -15 -8 -48 -14 -73 -14 -137 0 -222 124 -166 245 45 97 150 136
241 90z"/>
<path d="M2040 3685 c-7 -9 -20 -69 -28 -135 -18 -139 -1 -127 -160 -109 l-96
12 -22 -26 c-16 -19 -23 -44 -28 -104 -4 -43 -9 -85 -12 -94 -2 -9 4 -26 14
-39 15 -18 36 -24 131 -36 63 -7 116 -16 118 -18 2 -2 -2 -53 -8 -113 -7 -60
-10 -117 -6 -126 10 -26 48 -36 156 -43 96 -7 99 -6 114 17 9 15 18 62 22 122
5 66 12 100 21 104 7 2 59 0 116 -6 148 -15 145 -18 164 171 6 62 4 68 -18 91
-22 22 -37 26 -133 32 l-107 8 5 51 c26 226 23 235 -69 247 -101 13 -160 10
-174 -6z"/>
<path d="M4320 3462 c-76 -38 -105 -146 -60 -220 27 -44 98 -76 148 -67 115
21 167 160 94 247 -48 56 -119 72 -182 40z"/>
<path d="M3984 3200 c-107 -53 -112 -208 -8 -267 49 -28 93 -29 145 -3 109 56
106 220 -5 271 -53 24 -82 24 -132 -1z"/>
<path d="M4622 3149 c-95 -20 -144 -148 -89 -230 62 -94 200 -89 255 9 65 116
-35 249 -166 221z"/>
<path d="M4262 2883 c-47 -23 -75 -67 -79 -127 -5 -65 19 -113 73 -143 49 -28
93 -29 145 -3 53 28 79 72 79 136 0 115 -116 188 -218 137z"/>
<path d="M6659 3257 c-63 -41 -67 -63 -58 -322 4 -126 13 -387 19 -579 10
-304 14 -355 30 -385 96 -190 396 -88 425 144 3 28 -1 246 -9 486 -17 488 -20
507 -90 586 -56 64 -122 93 -212 93 -57 0 -78 -4 -105 -23z"/>
<path d="M8297 3105 c-58 -22 -110 -68 -140 -123 -18 -34 -62 -187 -133 -469
-97 -382 -106 -424 -101 -485 12 -150 114 -258 242 -258 60 0 127 29 150 63
18 29 34 87 185 686 61 239 110 446 110 461 0 39 -39 92 -83 113 -51 25 -179
32 -230 12z"/>
</g>
</svg>
